<svg width="57" height="88" viewBox="0 0 57 88" fill="none" xmlns="http://www.w3.org/2000/svg">
    <path fill-rule="evenodd" clip-rule="evenodd" d="M43.3333 7.16663H41.1667V7.16667C41.1667 9.5599 39.2266 11.5 36.8333 11.5H19.5C17.1068 11.5 15.1667 9.5599 15.1667 7.16667V7.16663H13C9.41015 7.16663 6.5 10.0768 6.5 13.6666V74.3333C6.5 77.9231 9.41015 80.8333 13 80.8333H43.3333C46.9232 80.8333 49.8333 77.9231 49.8333 74.3333V13.6666C49.8333 10.0768 46.9232 7.16663 43.3333 7.16663ZM13 0.666626C5.8203 0.666626 0 6.48692 0 13.6666V74.3333C0 81.513 5.8203 87.3333 13 87.3333H43.3333C50.513 87.3333 56.3333 81.513 56.3333 74.3333V13.6666C56.3333 6.48692 50.513 0.666626 43.3333 0.666626H13ZM21.6667 71.0833C19.8717 71.0833 18.4167 72.5384 18.4167 74.3333C18.4167 76.1283 19.8717 77.5833 21.6667 77.5833H34.6667C36.4616 77.5833 37.9167 76.1283 37.9167 74.3333C37.9167 72.5384 36.4616 71.0833 34.6667 71.0833H21.6667Z" fill="white"/>
</svg>
