<svg width="22" height="22" viewBox="0 0 22 22" fill="none" xmlns="http://www.w3.org/2000/svg">
    <path fill-rule="evenodd" clip-rule="evenodd" d="M21.8332 11C21.8332 5.01687 16.9829 0.166626 10.9998 0.166626C5.01675 0.166626 0.166504 5.01687 0.166504 11C0.166504 16.983 5.01675 21.8333 10.9998 21.8333C16.9829 21.8333 21.8332 16.983 21.8332 11ZM9.37484 6.12496C9.37484 5.52665 9.85986 5.04163 10.4582 5.04163C11.0565 5.04163 11.5415 5.52665 11.5415 6.12496V10.9042L15.8593 13.303C16.3823 13.5935 16.5707 14.2531 16.2802 14.7761C15.9896 15.2991 15.3301 15.4875 14.8071 15.197L9.93206 12.4886C9.58814 12.2976 9.37484 11.9351 9.37484 11.5416V6.12496Z" fill="white"/>
</svg>
